<?xml version="1.0" encoding="UTF-8"?>
<svg width="76px" height="23px" viewBox="0 0 76 23" version="1.1" xmlns="http://www.w3.org/2000/svg" xmlns:xlink="http://www.w3.org/1999/xlink">
    <title>Logo instance</title>
    <g id="Page-1" stroke="none" stroke-width="1" fill="none" fill-rule="evenodd">
        <g id="Desktop-Home" transform="translate(-51.000000, -1224.000000)">
            <g id="Group-4" transform="translate(0.000000, 1182.000000)">
                <g id="Group" transform="translate(51.000000, 38.999878)">
                    <g id="Group-2" transform="translate(0.410665, 3.819443)">
                        <path d="M68.4860189,13.5666669 C68.0093485,13.5666669 67.5662939,13.4902781 67.1568506,13.3375 C66.7474073,13.1847224 66.3960202,12.9708331 66.1026848,12.6958338 C65.8093495,12.4208346 65.5771289,12.0969454 65.4060186,11.724167 C65.2349082,11.3513904 65.149353,10.945001 65.149353,10.5049999 C65.149353,10.0283344 65.2501869,9.594446 65.45185,9.20333419 C65.6535178,8.81222297 65.9376869,8.47611256 66.3043526,8.19500087 C66.6710183,7.91388918 67.1049067,7.69388983 67.6060175,7.53500102 C68.1071285,7.37611193 68.6632371,7.29666678 69.2743528,7.29666678 C69.6776838,7.29666678 70.0687945,7.33027812 70.4476852,7.3975008 C70.8265757,7.46472318 71.1565762,7.565556 71.4376869,7.70000017 L71.4376869,7.26000057 C71.4376869,6.14777836 70.7960182,5.59166741 69.5126859,5.59166741 C68.9871299,5.59166741 68.4860189,5.68027821 68.0093532,5.85750042 C67.5326826,6.03472322 67.0315716,6.30055623 66.5060157,6.65500064 L65.6443515,4.82166737 C66.2799076,4.40611107 66.939904,4.09444485 67.6243503,3.88666755 C68.3087963,3.67888911 69.0360154,3.57500018 69.8060165,3.57500018 C71.2604593,3.57500018 72.3849063,3.91722324 73.1793526,4.60166697 C73.9737943,5.28611198 74.3710172,6.28833376 74.3710172,7.60833375 L74.3710172,10.083334 C74.3710172,10.3766672 74.4168486,10.5813887 74.5085162,10.6975006 C74.6001837,10.813612 74.7621279,10.8838892 74.9943487,10.908333 L74.9943487,13.3833341 C74.7376827,13.4444452 74.5054624,13.4841666 74.2976821,13.5025006 C74.0899065,13.520834 73.9004639,13.5300001 73.7293532,13.5300001 C73.1793526,13.5300001 72.7637967,13.4230567 72.482686,13.2091673 C72.2015759,12.995278 72.024353,12.6927787 71.9510179,12.3016669 L71.89602,11.8616676 C71.4682397,12.4116673 70.9579624,12.8333344 70.3651836,13.126667 C69.7724054,13.4200003 69.1460154,13.5666669 68.4860189,13.5666669 L68.4860189,13.5666669 Z M69.347702,11.4583343 C69.6654777,11.4583343 69.9740918,11.4033342 70.273535,11.293334 C70.572978,11.1833339 70.8204819,11.0366673 71.0160374,10.8533332 C71.297148,10.6333341 71.4377056,10.4011112 71.4377056,10.156667 L71.4377056,9.24000037 C71.1810354,9.14222269 70.9029786,9.0658338 70.6035356,9.01083371 C70.3040924,8.95583478 70.0260358,8.92833357 69.7693702,8.92833357 C69.2315941,8.92833357 68.7885348,9.05055625 68.4402016,9.29500045 C68.0918685,9.53944466 67.9177043,9.85722269 67.9177043,10.2483346 C67.9177043,10.6027789 68.0521495,10.8930559 68.3210352,11.1191675 C68.5899255,11.345279 68.9321463,11.4583343 69.347702,11.4583343 L69.347702,11.4583343 Z M56.1293471,11.6233344 L61.0426809,5.79333354 L56.3860126,5.79333354 L56.3860126,3.75833363 L64.1043491,3.75833363 L64.1043491,5.51833369 L59.2276802,11.3483339 L64.2326817,11.3483339 L64.2326817,13.3833341 L56.1293471,13.3833341 L56.1293471,11.6233344 Z M54.754389,13.3833341 L51.8210537,13.3833341 L51.8210537,7.97500058 C51.8210537,7.33944545 51.7018868,6.87805601 51.4635541,6.59083431 C51.2252209,6.30361115 50.9104995,6.15999986 50.5193888,6.15999986 C50.3116084,6.15999986 50.103833,6.20277725 49.8960526,6.2883338 C49.6882772,6.37389005 49.4866095,6.49305653 49.2910541,6.6458344 C49.0954988,6.79861198 48.9213345,6.9788899 48.7685568,7.1866667 C48.6157788,7.39444554 48.4966124,7.62055609 48.4110525,7.86500039 L48.4110525,13.3833341 L45.4777222,13.3833341 L45.4777222,3.75833363 L48.1177218,3.75833363 L48.1177218,5.37166715 C48.4721629,4.79722294 48.9732736,4.35416718 49.6210544,4.04250038 C50.2688352,3.73083416 51.0143916,3.57500018 51.8577236,3.57500018 C52.4810549,3.57500018 52.9821654,3.68805657 53.3610562,3.91416761 C53.7399466,4.14027864 54.0332772,4.43361223 54.2410576,4.79416734 C54.448833,5.15472347 54.5863324,5.54889041 54.6535546,5.976667 C54.7207774,6.40444387 54.754389,6.8199998 54.754389,7.22333421 L54.754389,13.3833341 Z M37.4660133,13.5666669 C36.9893472,13.5666669 36.5462927,13.4902781 36.1368471,13.3375 C35.7274013,13.1847224 35.3760143,12.9708331 35.0826812,12.6958338 C34.7893482,12.4208346 34.5571253,12.0969454 34.3860149,11.724167 C34.2149022,11.3513904 34.1293471,10.945001 34.1293471,10.5049999 C34.1293471,10.0283344 34.230181,9.594446 34.4318464,9.20333419 C34.6335142,8.81222297 34.917681,8.47611256 35.2843467,8.19500087 C35.6510147,7.91388918 36.0849031,7.69388983 36.586014,7.53500102 C37.0871249,7.37611193 37.643236,7.29666678 38.2543472,7.29666678 C38.6576805,7.29666678 39.0487911,7.33027812 39.4276818,7.3975008 C39.8065679,7.46472318 40.1365681,7.565556 40.417679,7.70000017 L40.417679,7.26000057 C40.417679,6.14777836 39.7760104,5.59166741 38.4926801,5.59166741 C37.9671241,5.59166741 37.4660133,5.68027821 36.9893472,5.85750042 C36.5126814,6.03472322 36.0115705,6.30055623 35.4860145,6.65500064 L34.6243479,4.82166737 C35.2599017,4.40611107 35.9199029,4.09444485 36.6043466,3.88666755 C37.2887906,3.67888911 38.0160142,3.57500018 38.7860133,3.57500018 C40.240456,3.57500018 41.3649031,3.91722324 42.1593494,4.60166697 C42.9537911,5.28611198 43.3510143,6.28833376 43.3510143,7.60833375 L43.3510143,10.083334 C43.3510143,10.3766672 43.3968457,10.5813887 43.4885133,10.6975006 C43.5801809,10.813612 43.7421246,10.8838892 43.9743498,10.908333 L43.9743498,13.3833341 C43.71768,13.4444452 43.485459,13.4841666 43.2776838,13.5025006 C43.0699034,13.520834 42.8804606,13.5300001 42.7093457,13.5300001 C42.1593447,13.5300001 41.7437932,13.4230567 41.4626829,13.2091673 C41.1815726,12.995278 41.0043496,12.6927787 40.9310144,12.3016669 L40.8760123,11.8616676 C40.4482364,12.4116673 39.9379588,12.8333344 39.3451802,13.126667 C38.7524018,13.4200003 38.1260143,13.5666669 37.4660133,13.5666669 L37.4660133,13.5666669 Z M38.3276984,11.4583343 C38.6454765,11.4583343 38.9540883,11.4033342 39.2535313,11.293334 C39.5529745,11.1833339 39.8004784,11.0366673 39.9960338,10.8533332 C40.2771444,10.6333341 40.4176973,10.4011112 40.4176973,10.156667 L40.4176973,9.24000037 C40.1610319,9.14222269 39.882975,9.0658338 39.583532,9.01083371 C39.2840888,8.95583478 39.0060322,8.92833357 38.7493666,8.92833357 C38.2115881,8.92833357 37.7685335,9.05055625 37.4202003,9.29500045 C37.0718649,9.53944466 36.8976983,9.85722269 36.8976983,10.2483346 C36.8976983,10.6027789 37.0321435,10.8930559 37.3010315,11.1191675 C37.5699219,11.345279 37.912145,11.4583343 38.3276984,11.4583343 L38.3276984,11.4583343 Z M32.7910169,13.3833341 L29.8576816,13.3833341 L29.8576816,7.97500058 C29.8576816,7.33944545 29.7385147,6.87805601 29.500182,6.59083431 C29.2618488,6.30361115 28.9471274,6.15999986 28.5560167,6.15999986 C28.3482385,6.15999986 28.1404609,6.20277725 27.932683,6.2883338 C27.7249051,6.37389005 27.5232374,6.49305653 27.327682,6.6458344 C27.1321267,6.79861198 26.9579599,6.9788899 26.8051822,7.1866667 C26.6524044,7.39444554 26.5332381,7.62055609 26.4476829,7.86500039 L26.4476829,13.3833341 L23.51435,13.3833341 L23.51435,3.75833363 L26.1543497,3.75833363 L26.1543497,5.37166715 C26.508793,4.79722294 27.0099037,4.35416718 27.6576823,4.04250038 C28.3054609,3.73083416 29.0510151,3.57500018 29.8943488,3.57500018 C30.5176828,3.57500018 31.0187933,3.68805657 31.3976819,3.91416761 C31.7765722,4.14027864 32.0699051,4.43361223 32.2776833,4.79416734 C32.4854609,5.15472347 32.6229603,5.54889041 32.6901825,5.976667 C32.7574052,6.40444387 32.7910169,6.8199998 32.7910169,7.22333421 L32.7910169,13.3833341 Z M16.9143634,13.5666669 C16.0954734,13.5666669 15.3651956,13.4322228 14.7235296,13.1633332 C14.0818621,12.8944443 13.5410286,12.5308338 13.1010291,12.0725005 C12.6610294,11.6141672 12.3279738,11.0825009 12.1018622,10.477501 C11.8757505,9.87250103 11.7626953,9.2400004 11.7626953,8.58000026 C11.7626953,7.92000041 11.8757505,7.28750038 12.1018622,6.68250074 C12.3279738,6.07750081 12.6610294,5.54583375 13.1010291,5.0875003 C13.5410286,4.6291676 14.0818621,4.26250072 14.7235296,3.98749971 C15.3651956,3.71249982 16.0954734,3.57500018 16.9143634,3.57500018 C17.7332513,3.57500018 18.4604735,3.71250099 19.0960299,3.98749971 C19.7315839,4.26250072 20.2693622,4.6291676 20.7093629,5.0875003 C21.1493612,5.54583375 21.485472,6.07750081 21.7176947,6.68250074 C21.9499174,7.28750038 22.0660279,7.92000041 22.0660279,8.58000026 C22.0660279,9.2400004 21.9529739,9.87250103 21.7268636,10.477501 C21.5007527,11.0825009 21.1676959,11.6141672 20.7276952,12.0725005 C20.2876969,12.5308338 19.7468621,12.8944443 19.1051964,13.1633332 C18.4635288,13.4322228 17.7332513,13.5666669 16.9143634,13.5666669 L16.9143634,13.5666669 Z M14.7693142,8.58000041 C14.7693142,9.33777795 14.9709809,9.94583412 15.3743153,10.4041674 C15.7776486,10.8625008 16.290982,11.0916674 16.9143156,11.0916674 C17.21987,11.0916674 17.5009817,11.0305561 17.7576486,10.9083333 C18.0143153,10.7861119 18.2373706,10.6150004 18.4268148,10.3950012 C18.6162588,10.1750008 18.7659817,9.90916789 18.8759819,9.597501 C18.9859821,9.28583411 19.0409819,8.94666725 19.0409819,8.58000041 C19.0409819,7.82222273 18.8393156,7.2141679 18.4359811,6.75583338 C18.0326479,6.29750126 17.5254256,6.06833459 16.9143156,6.06833459 C16.608759,6.06833459 16.3245921,6.12944593 16.0618153,6.25166745 C15.7990374,6.37388898 15.5729257,6.54500051 15.3834816,6.76500084 C15.1940374,6.98500124 15.0443147,7.25083421 14.9343145,7.56250102 C14.8243143,7.87416791 14.7693142,8.21333358 14.7693142,8.58000041 L14.7693142,8.58000041 Z M6.37268377,13.5666669 C5.63935012,13.5666669 4.99768311,13.4108346 4.44768364,13.0991676 C3.89768356,12.7875005 3.4637944,12.3505563 3.14601677,11.7883341 L3.14601677,13.3833345 L0.597683377,13.3833345 L0.597683377,0 L3.53101674,0 L3.53101674,5.33500105 C3.84879467,4.78500056 4.27351665,4.35416719 4.80518328,4.04250054 C5.33684991,3.73083429 5.96323829,3.57500077 6.68435086,3.57500036 C7.29546091,3.57500077 7.85768298,3.70638962 8.37101769,3.96916733 C8.88435118,4.23194584 9.32435027,4.5894456 9.6910174,5.0416674 C10.0576833,5.49389001 10.3449064,6.02861212 10.5526855,6.64583455 C10.7604621,7.26305699 10.8643507,7.92000045 10.8643507,8.61666655 C10.8643507,9.31333427 10.7512959,9.96416767 10.5251842,10.5691676 C10.2990726,11.1741675 9.98434951,11.6997229 9.58101732,12.1458346 C9.17768268,12.5919456 8.70101548,12.9402786 8.15101693,13.1908338 C7.60101593,13.4413897 7.00823903,13.5666669 6.37268377,13.5666669 L6.37268377,13.5666669 Z M5.54771377,11.0916674 C5.88993499,11.0916674 6.20160186,11.0275009 6.48271348,10.899167 C6.76382406,10.7708331 7.00521271,10.5966667 7.20687993,10.3766675 C7.40854613,10.1566671 7.56743517,9.89694521 7.68354654,9.597501 C7.79965739,9.29805679 7.85771346,8.97111111 7.85771346,8.61666665 C7.85771346,8.27444487 7.80271286,7.94750053 7.69271399,7.63583379 C7.58271383,7.32416691 7.43299172,7.05222267 7.24354691,6.82000094 C7.0541021,6.58777808 6.82493561,6.40444407 6.55604692,6.27000004 C6.28715772,6.13555602 5.99993516,6.06833459 5.69437962,6.06833459 C5.22993504,6.06833459 4.80521305,6.22722361 4.42021318,6.54500051 C4.03521313,6.86277859 3.73882414,7.26000055 3.53104655,7.73666758 L3.53104655,9.7533337 C3.72660221,10.1688894 4.01076869,10.4958339 4.38354659,10.7341669 C4.75632469,10.972501 5.14438048,11.0916674 5.54771377,11.0916674 L5.54771377,11.0916674 Z" id="bonanza" fill="#FF0000"></path>
                        <path d="M27.8471209,19.6105565 C27.4560102,19.6105565 27.0811946,19.5453715 26.7226764,19.415001 C26.3641582,19.2846309 26.0512687,19.0890754 25.7840101,18.8283345 L26.0284532,18.4958901 C26.3022321,18.7435939 26.5857881,18.9261121 26.8791212,19.0434455 C27.1724542,19.1607793 27.4951208,19.2194458 27.8471209,19.2194458 C28.2903806,19.2194458 28.6472694,19.1265567 28.9177869,18.9407788 C29.1883069,18.7550012 29.3235657,18.4958898 29.3235657,18.1634453 C29.3235657,18.0070012 29.2893436,17.8750007 29.2208995,17.7674455 C29.1524553,17.6598903 29.0497889,17.5686306 28.9128985,17.4936679 C28.77601,17.418705 28.6065292,17.3518899 28.4044535,17.2932233 C28.2023802,17.2345568 27.9677141,17.1726308 27.7004532,17.1074457 C27.4136382,17.0422604 27.1643067,16.9770753 26.9524538,16.9118896 C26.740601,16.8467045 26.5662316,16.7684822 26.4293433,16.6772231 C26.2924527,16.585964 26.1897865,16.4751491 26.1213423,16.3447788 C26.0528982,16.2144087 26.0186761,16.0481863 26.0186761,15.8461123 C26.0186761,15.5918897 26.0675661,15.3702599 26.1653438,15.1812231 C26.2631215,14.9921864 26.3983803,14.835742 26.5711202,14.7118898 C26.74386,14.5880378 26.9426767,14.495149 27.1675656,14.4332232 C27.3924545,14.3712971 27.6320091,14.340334 27.8862316,14.340334 C28.2838627,14.340334 28.6358627,14.407149 28.942232,14.5407785 C29.248601,14.6744084 29.4865283,14.8455196 29.6560093,15.054112 L29.3822326,15.318112 C29.2127518,15.1225567 28.9927515,14.9758898 28.7222317,14.8781119 C28.4517116,14.7803342 28.1632672,14.7314454 27.8568981,14.7314454 C27.6678607,14.7314454 27.4902323,14.751001 27.3240104,14.7901121 C27.1577886,14.8292233 27.0127504,14.8911491 26.8888983,14.9758898 C26.765046,15.0606305 26.6672684,15.1698154 26.5955652,15.3034453 C26.523862,15.4370751 26.4880104,15.5951494 26.4880104,15.7776675 C26.4880104,15.9275936 26.5124554,16.0481863 26.5613431,16.1394452 C26.6102308,16.2307043 26.6884543,16.3089267 26.7960091,16.3741124 C26.9035638,16.4392974 27.042084,16.4963344 27.2115649,16.5452228 C27.3810457,16.5941122 27.5831214,16.6478901 27.8177875,16.7065567 C28.1371949,16.7847791 28.420751,16.8597417 28.6684555,16.9314456 C28.9161573,17.0031493 29.1231216,17.0911493 29.2893436,17.1954457 C29.4555653,17.2997418 29.5826766,17.4235934 29.6706773,17.5670009 C29.7586755,17.7104087 29.8026769,17.8929271 29.8026769,18.1145567 C29.8026769,18.5708531 29.6250463,18.9342603 29.2697871,19.2047791 C28.914528,19.475297 28.4403075,19.6105565 27.8471209,19.6105565 L27.8471209,19.6105565 Z M22.6942509,19.6105565 C22.3357329,19.6105565 22.003287,19.5404823 21.6969178,19.4003343 C21.3905487,19.2601866 21.1249173,19.0678902 20.9000284,18.8234454 C20.6751395,18.5790009 20.4991406,18.2970752 20.3720294,17.9776677 C20.2449182,17.6582606 20.1813626,17.3160382 20.1813626,16.9510008 C20.1813626,16.5924826 20.2449182,16.2551492 20.3720294,15.9390014 C20.4991406,15.6228528 20.67351,15.3458155 20.8951399,15.1078899 C21.1167698,14.8699643 21.3791398,14.6825568 21.6822522,14.5456676 C21.9853623,14.4087785 22.3129175,14.340334 22.6649176,14.340334 C23.0234356,14.340334 23.3558816,14.410408 23.6622509,14.5505562 C23.9686199,14.6907047 24.2326218,14.8797417 24.4542516,15.1176676 C24.6758815,15.3555937 24.8486215,15.6326305 24.9724737,15.9487784 C25.0963235,16.264927 25.1582497,16.5990013 25.1582497,16.9510008 C25.1582497,16.9835941 25.1582497,17.0243345 25.1582497,17.0732229 C25.1582497,17.1221125 25.1549905,17.1530753 25.1484726,17.166112 L20.6898074,17.166112 C20.7093616,17.4594457 20.7778057,17.7315939 20.8951399,17.9825568 C21.0124717,18.2335195 21.1607689,18.4502605 21.3400292,18.6327784 C21.519287,18.8152972 21.7262513,18.9587046 21.9609174,19.0630011 C22.1955833,19.1672972 22.4465467,19.2194458 22.7138076,19.2194458 C22.8898065,19.2194458 23.0625486,19.1950012 23.2320294,19.1461119 C23.4015104,19.097223 23.5595822,19.0304085 23.70625,18.9456673 C23.8529178,18.860927 23.9832879,18.7582603 24.0973629,18.6376675 C24.2114359,18.517075 24.3010659,18.3850752 24.3662511,18.2416677 L24.7964724,18.3590008 C24.7247693,18.5415193 24.6188439,18.7093714 24.4786943,18.8625564 C24.3385471,19.0157418 24.1755842,19.1477419 23.9898061,19.2585562 C23.80403,19.3693712 23.6003246,19.4557418 23.3786948,19.517668 C23.1570649,19.5795934 22.9289172,19.6105565 22.6942509,19.6105565 L22.6942509,19.6105565 Z M24.6888688,16.7750014 C24.6693126,16.4751497 24.6024978,16.2013713 24.488425,15.9536675 C24.3743498,15.7059643 24.2276823,15.4924831 24.0484244,15.3132235 C23.8691665,15.1339638 23.662202,14.9938156 23.4275362,14.8927786 C23.1928702,14.7917419 22.9419067,14.741223 22.6746458,14.741223 C22.4073873,14.741223 22.1564239,14.7917419 21.9217579,14.8927786 C21.6870919,14.9938159 21.4801276,15.1339644 21.3008696,15.3132235 C21.1216094,15.4924825 20.9782007,15.7075938 20.870646,15.9585566 C20.7630912,16.2095195 20.6995356,16.4816677 20.6799791,16.7750014 L24.6888688,16.7750014 Z M19.0568656,19.5127788 L18.5679773,19.5127788 L18.5679773,16.6772231 C18.5679773,16.0318899 18.4685703,15.5560382 18.2697559,15.2496679 C18.0709402,14.9432973 17.7661985,14.7901122 17.3555321,14.7901122 C17.1469394,14.7901122 16.948125,14.8292233 16.759089,14.9074454 C16.5700517,14.9856678 16.3973108,15.094853 16.2408661,15.2350012 C16.0844213,15.375149 15.9491625,15.5413715 15.8350882,15.7336678 C15.7210144,15.9259641 15.6313853,16.1394459 15.5661992,16.3741124 L15.5661992,19.5127788 L15.0773107,19.5127788 L15.0773107,16.6772231 C15.0773096,16.0253714 14.9795318,15.54789 14.7839765,15.2447788 C14.588421,14.9416678 14.2853099,14.7901124 13.8746437,14.7901122 C13.6660512,14.7901122 13.4688651,14.8275935 13.2830879,14.9025566 C13.0973107,14.9775197 12.9261992,15.0850753 12.7697544,15.2252229 C12.6133097,15.3653714 12.4747907,15.5315938 12.3541987,15.7238896 C12.2336067,15.9161864 12.1407175,16.1296677 12.0755324,16.3643342 L12.0755324,19.5127788 L11.5866428,19.5127788 L11.5866428,14.4283341 L12.0461989,14.4283341 L12.0461989,15.6407787 C12.2547915,15.230112 12.5285692,14.9107047 12.8675322,14.6825565 C13.206495,14.4544083 13.5813095,14.340334 13.9919768,14.340334 C14.4221992,14.340334 14.7709391,14.4674453 15.0381988,14.7216677 C15.3054586,14.9758902 15.4651626,15.3083344 15.5173101,15.719001 C15.9996808,14.7998895 16.6645692,14.340334 17.5119769,14.340334 C18.0660504,14.340334 18.4620512,14.5375192 18.6999772,14.9318898 C18.9379033,15.3262602 19.0568656,15.8787048 19.0568656,16.5892232 L19.0568656,19.5127788 Z M7.58758844,19.6105565 C7.35292188,19.6105565 7.13455099,19.5698158 6.93247704,19.4883343 C6.73040301,19.4068528 6.55277343,19.2960379 6.39958827,19.1558902 C6.24640313,19.0157421 6.12744003,18.8495197 6.04269902,18.6572233 C5.95795801,18.4649272 5.91558838,18.2579641 5.91558838,18.0363343 C5.91558838,17.8147048 5.96773625,17.6126308 6.07203256,17.4301123 C6.17632888,17.2475935 6.32136588,17.0895199 6.5071436,16.9558899 C6.69292134,16.8222601 6.91618076,16.7179638 7.17692179,16.643001 C7.43766229,16.5680382 7.72447672,16.5305572 8.03736574,16.5305565 C8.31114412,16.5305565 8.5865514,16.555001 8.86358864,16.6038898 C9.14062482,16.6527786 9.38995817,16.7195934 9.61158817,16.8043343 L9.61158817,16.3056676 C9.61158817,15.8232978 9.47469976,15.4403347 9.2009219,15.1567787 C8.92714378,14.8732233 8.55558815,14.7314456 8.08625449,14.7314454 C7.8385507,14.7314454 7.57618064,14.7835935 7.29914393,14.8878898 C7.02210657,14.9921861 6.74018067,15.142112 6.45336624,15.3376673 L6.26758794,15.0052231 C6.91943974,14.5619636 7.53869956,14.340334 8.12536644,14.340334 C8.73810699,14.340334 9.22047735,14.5179636 9.57247753,14.8732231 C9.92447771,15.2284825 10.1004778,15.7190009 10.1004778,16.3447788 L10.1004778,18.8283345 C10.1004778,18.9912972 10.1721808,19.0727787 10.3155883,19.0727787 L10.3155883,19.5127789 C10.2829958,19.5192974 10.2487737,19.5241859 10.2129222,19.5274456 C10.1770694,19.5307044 10.1461064,19.5323341 10.120033,19.5323341 C9.98966149,19.5323341 9.88536576,19.4883343 9.80714449,19.4003343 C9.72892217,19.3123343 9.68329253,19.2064085 9.67025504,19.0825563 L9.67025504,18.6621121 C9.43558808,18.9684822 9.13573628,19.2031488 8.7706994,19.3661124 C8.40566278,19.529075 8.01129233,19.6105565 7.58758844,19.6105565 L7.58758844,19.6105565 Z M7.68533228,19.2194458 C8.06340639,19.2194458 8.41051734,19.1477421 8.72666543,19.0043346 C9.04281332,18.8609271 9.28562873,18.6718898 9.45511068,18.4372232 C9.55940642,18.3003343 9.6115542,18.169964 9.6115542,18.0461124 L9.6115542,17.1465568 C9.37688719,17.0552972 9.13244357,16.9868524 8.8782216,16.9412232 C8.62399925,16.895594 8.35999913,16.8727791 8.08622067,16.8727791 C7.83199889,16.8727791 7.6005913,16.9004825 7.39199866,16.95589 C7.18340607,17.0112974 7.00414697,17.0878897 6.85422142,17.1856674 C6.70429527,17.2834457 6.58859121,17.4024087 6.50710981,17.5425566 C6.4256284,17.6827051 6.3848877,17.8375198 6.3848877,18.0070007 C6.3848877,18.176482 6.41748026,18.3361859 6.48266538,18.486112 C6.5478505,18.6360381 6.63910957,18.7647789 6.75644314,18.8723342 C6.87377672,18.9798895 7.01229566,19.0646306 7.17199888,19.1265566 C7.3317021,19.1884821 7.50281362,19.2194458 7.68533228,19.2194458 L7.68533228,19.2194458 Z M2.4053334,19.591001 C2.05333328,19.591001 1.73066646,19.5176677 1.43733338,19.3710005 C1.14400001,19.2243342 0.891407401,19.0287789 0.679555541,18.7843341 C0.467703645,18.5398897 0.301481388,18.2612228 0.180888876,17.9483339 C0.0602962964,17.6354451 0,17.3127785 0,16.9803343 C0,16.6348529 0.057037016,16.3024079 0.171111088,15.9830005 C0.285185112,15.6635935 0.446518395,15.3816676 0.655111118,15.1372234 C0.863703625,14.8927789 1.11303696,14.6988531 1.40311104,14.5554453 C1.69318506,14.4120378 2.0142222,14.340334 2.36622218,14.340334 C2.80948173,14.340334 3.19570419,14.4560378 3.52488899,14.6874453 C3.85407408,14.9188526 4.1327408,15.2007784 4.36088913,15.5332232 L4.36088913,14.4283341 L4.81066709,14.4283341 L4.81066709,19.6105565 C4.81066709,19.9560379 4.74548177,20.2591486 4.61511084,20.51989 C4.48474078,20.7806304 4.31037046,20.9973707 4.09200019,21.1701116 C3.87362962,21.342853 3.61940705,21.4732232 3.32933332,21.5612236 C3.03925902,21.6492231 2.73451835,21.6932237 2.41511103,21.6932237 C2.12177781,21.6932237 1.8577776,21.6655196 1.62311114,21.6101113 C1.38844425,21.5547044 1.18148141,21.4764822 1.00222214,21.3754455 C0.822962944,21.2744076 0.663259211,21.1505566 0.523111124,21.0038899 C0.38296293,20.8572236 0.260740706,20.6958903 0.156444434,20.51989 L0.488888896,20.295001 C0.690962915,20.640482 0.96474067,20.8930751 1.31022224,21.0527789 C1.65570366,21.2124828 2.02400011,21.2923345 2.41511103,21.2923345 C2.67585173,21.2923345 2.92192579,21.256483 3.15333347,21.1847786 C3.38474058,21.1130743 3.58681467,21.0071488 3.75955574,20.8670004 C3.93229624,20.7268521 4.06918501,20.5524825 4.17022234,20.3438901 C4.27125939,20.1352976 4.32177776,19.8908528 4.32177776,19.6105565 L4.32177776,18.4958899 C4.11318526,18.8283343 3.83614836,19.093964 3.4906668,19.2927787 C3.14518523,19.4915939 2.78340748,19.591001 2.4053334,19.591001 L2.4053334,19.591001 Z M2.52269118,19.1705569 C2.73780218,19.1705569 2.94802457,19.1298166 3.1533579,19.0483346 C3.35869123,18.9668532 3.54446922,18.8609274 3.71069141,18.7305573 C3.87691338,18.6001863 4.01380234,18.4535199 4.12135807,18.290557 C4.22891334,18.1275944 4.29572817,17.9646315 4.32180256,17.8016681 L4.32180256,16.1296682 C4.24358007,15.9341128 4.13928387,15.7532242 4.00891351,15.5870018 C3.87854292,15.4207794 3.73024675,15.2790014 3.56402455,15.1616678 C3.39780213,15.0443349 3.21854274,14.951446 3.02624661,14.8830016 C2.83395047,14.8145571 2.64002458,14.7803348 2.44446915,14.7803348 C2.13809858,14.7803348 1.86432054,14.8455199 1.62313561,14.9758904 C1.38195039,15.106261 1.17824671,15.2757424 1.01202446,15.4843344 C0.845802202,15.6929276 0.718691138,15.9292236 0.630691176,16.1932238 C0.542691151,16.4572238 0.498691135,16.7228534 0.498691135,16.9901126 C0.498691135,17.2834462 0.550839292,17.560483 0.655135605,17.8212241 C0.759431834,18.0819644 0.902839336,18.3133719 1.08535788,18.5154459 C1.2678764,18.71752 1.48298757,18.8772236 1.73069122,18.9945573 C1.97839452,19.1118904 2.24239455,19.1705569 2.52269118,19.1705569 L2.52269118,19.1705569 Z" id="games" fill="#FFFFFF"></path>
                    </g>
                </g>
            </g>
        </g>
    </g>
</svg>